<svg width="21" height="21" viewBox="0 0 21 21" fill="none" xmlns="http://www.w3.org/2000/svg">
<path d="M17.8667 4.34166C17.441 3.91583 16.9357 3.57803 16.3795 3.34757C15.8232 3.1171 15.2271 2.99847 14.625 2.99847C14.0229 2.99847 13.4268 3.1171 12.8705 3.34757C12.3143 3.57803 11.809 3.91583 11.3833 4.34166L10.5 5.225L9.61666 4.34166C8.75692 3.48192 7.59086 2.99892 6.375 2.99892C5.15914 2.99892 3.99307 3.48192 3.13333 4.34166C2.27359 5.20141 1.79059 6.36747 1.79059 7.58333C1.79059 8.79919 2.27359 9.96525 3.13333 10.825L4.01666 11.7083L10.5 18.1917L16.9833 11.7083L17.8667 10.825C18.2925 10.3994 18.6303 9.89401 18.8608 9.33779C19.0912 8.78158 19.2099 8.1854 19.2099 7.58333C19.2099 6.98126 19.0912 6.38508 18.8608 5.82887C18.6303 5.27265 18.2925 4.76729 17.8667 4.34166Z" fill="#EB5757"/>
</svg>
