<svg width="21" height="21" viewBox="0 0 21 21" fill="none" xmlns="http://www.w3.org/2000/svg">
<path d="M18 10.0833C18.0029 11.1832 17.7459 12.2682 17.25 13.25C16.662 14.4264 15.7581 15.416 14.6395 16.1077C13.521 16.7995 12.2319 17.1661 10.9167 17.1667C9.81678 17.1695 8.73176 16.9125 7.75 16.4167L3 18L4.58333 13.25C4.08744 12.2682 3.83047 11.1832 3.83333 10.0833C3.83384 8.76812 4.20051 7.47904 4.89227 6.36045C5.58402 5.24187 6.57355 4.33797 7.75 3.74999C8.73176 3.2541 9.81678 2.99713 10.9167 2.99999H11.3333C13.0703 3.09582 14.7109 3.82896 15.9409 5.05904C17.171 6.28912 17.9042 7.9297 18 9.66666V10.0833Z" stroke="black" stroke-width="2" stroke-linecap="round" stroke-linejoin="round"/>
</svg>
